<?xml version="1.0" encoding="UTF-8" standalone="no"?>
<!DOCTYPE svg PUBLIC "-//W3C//DTD SVG 1.1//EN" "http://www.w3.org/Graphics/SVG/1.1/DTD/svg11.dtd">
<svg version="1.1" xmlns="http://www.w3.org/2000/svg" xmlns:xlink="http://www.w3.org/1999/xlink" preserveAspectRatio="xMidYMid meet" viewBox="-1 -1.0000000000000036 56.99901419191638 56.99901419191639" width="120" height="120"><defs><path d="M26.5 0C11.86 0 0 11.86 0 26.5C0 41.13 11.86 53 26.5 53C41.13 53 53 41.13 53 26.5C53 11.86 41.13 0 26.5 0Z" id="f1XiyuqwnJ"></path><path d="M36.82 20.07C36.82 21.59 36.44 22.81 35.67 23.73C35.24 24.25 34.61 24.72 33.78 25.15C35.05 25.61 36 26.34 36.65 27.34C37.29 28.34 37.61 29.55 37.61 30.97C37.61 32.45 37.25 33.77 36.51 34.93C36.04 35.71 35.45 36.36 34.75 36.89C33.96 37.49 33.02 37.91 31.94 38.13C30.87 38.36 29.7 38.47 28.43 38.47C27.69 38.47 23.96 38.47 17.25 38.47L17.25 13.64C24.45 13.64 28.45 13.64 29.25 13.64C32.28 13.68 34.42 14.57 35.68 16.28C36.44 17.34 36.82 18.6 36.82 20.07ZM22.2 23.43C25.82 23.43 27.83 23.43 28.24 23.43C29.31 23.43 30.19 23.22 30.86 22.81C31.54 22.4 31.87 21.67 31.87 20.63C31.87 19.47 31.43 18.71 30.54 18.34C29.77 18.08 28.79 17.95 27.6 17.95C27.24 17.95 25.44 17.95 22.2 17.95L22.2 23.43ZM22.2 34.16C25.82 34.16 27.83 34.16 28.23 34.16C29.31 34.16 30.14 34.01 30.74 33.72C31.83 33.18 32.38 32.15 32.38 30.62C32.38 29.33 31.85 28.44 30.79 27.96C30.21 27.69 29.38 27.55 28.31 27.54C27.9 27.54 25.87 27.54 22.2 27.54L22.2 34.16Z" id="a27IqHnAZz"></path></defs><g><g><use xlink:href="#f1XiyuqwnJ" opacity="1" fill="#7952b3" fill-opacity="1"></use><g><use xlink:href="#f1XiyuqwnJ" opacity="1" fill-opacity="0" stroke="#000000" stroke-width="1" stroke-opacity="0"></use></g></g><g><use xlink:href="#a27IqHnAZz" opacity="1" fill="#ffffff" fill-opacity="1"></use><g><use xlink:href="#a27IqHnAZz" opacity="1" fill-opacity="0" stroke="#000000" stroke-width="1" stroke-opacity="0"></use></g></g></g></svg>