<?xml version="1.0" encoding="UTF-8" standalone="no"?>
<!DOCTYPE svg PUBLIC "-//W3C//DTD SVG 1.1//EN" "http://www.w3.org/Graphics/SVG/1.1/DTD/svg11.dtd">
<svg version="1.1" xmlns="http://www.w3.org/2000/svg" xmlns:xlink="http://www.w3.org/1999/xlink" preserveAspectRatio="xMidYMid meet" viewBox="1 -1 32.001999999999995 36" width="120" height="120"><defs><path d="M16 32L4.63 28.89L2 0L30 0L27.38 28.89L16 32Z" id="brmyNw5lK"></path><path d="M16 29.75L25.23 27.01L27.69 2L16 2L16 29.75Z" id="boZyOZpJs"></path><path d="M7.61 6L8 10L8.62 17L19.5 17L19.15 20.98L16 21.99L12.86 20.98L12.65 19L8.8 19L9.26 23.99L16 25.99L22.73 23.99L23.72 13L12.25 13L12 10L24 10L24.36 6L7.61 6Z" id="e1vMuN8rfx"></path></defs><g><g><use xlink:href="#brmyNw5lK" opacity="1" fill="#e44d26" fill-opacity="1"></use><g><use xlink:href="#brmyNw5lK" opacity="1" fill-opacity="0" stroke="#000000" stroke-width="1" stroke-opacity="0"></use></g></g><g><use xlink:href="#boZyOZpJs" opacity="1" fill="#ff6c39" fill-opacity="1"></use><g><use xlink:href="#boZyOZpJs" opacity="1" fill-opacity="0" stroke="#000000" stroke-width="1" stroke-opacity="0"></use></g></g><g><use xlink:href="#e1vMuN8rfx" opacity="1" fill="#ffffff" fill-opacity="1"></use><g><use xlink:href="#e1vMuN8rfx" opacity="1" fill-opacity="0" stroke="#000000" stroke-width="1" stroke-opacity="0"></use></g></g></g></svg>