<?xml version="1.0" encoding="UTF-8" standalone="no"?>
<!DOCTYPE svg PUBLIC "-//W3C//DTD SVG 1.1//EN" "http://www.w3.org/Graphics/SVG/1.1/DTD/svg11.dtd">
<svg version="1.1" xmlns="http://www.w3.org/2000/svg" xmlns:xlink="http://www.w3.org/1999/xlink" preserveAspectRatio="xMidYMid meet" viewBox="69 69 504 504" width="120" height="120"><defs><path d="M320 70C181.93 70 70 181.93 70 320C70 458.07 181.93 570 320 570C458.07 570 570 458.07 570 320C570 181.93 458.07 70 320 70Z" id="b468Mb9qVM"></path><path d="M285.5 223C285.5 296.5 285.5 337.33 285.5 345.5C285.5 400.5 259 420 217 420C206.5 420 193.5 418.5 185 415.5C185.5 411.95 189.5 383.55 190 380C196 382 204 383.5 212.5 383.5C231 383.5 242.5 375 242.5 345.5C242.47 337.33 242.3 296.5 242 223L242 223L285.5 223Z" id="d5bmQCZQF"></path><path d="M372.5 384C392.5 384 403 375.5 403 362.5C403 350.5 394 343.5 370.5 335.5C338.5 324 317 306 317 277.5C317 245 345 220 390.5 220C412.5 220 428.5 224.5 440 230C439 233.5 431 261.5 430 265C422.5 261.5 408.5 256 390 256C371 256 362 265 362 274.5C362 287 372.5 292.5 398 302C432 314.5 448 332.5 448 360C448 392.5 423.5 420 370 420C348 420 326 414 315 408C315.6 405.6 318.6 393.6 324 372C344 380 360.17 384 372.5 384Z" id="a4MvDM96m0"></path></defs><g><g><use xlink:href="#b468Mb9qVM" opacity="1" fill="#f0db4f" fill-opacity="1"></use><g><use xlink:href="#b468Mb9qVM" opacity="1" fill-opacity="0" stroke="#000000" stroke-width="1" stroke-opacity="0"></use></g></g><g><use xlink:href="#d5bmQCZQF" opacity="1" fill="#323330" fill-opacity="1"></use><g><use xlink:href="#d5bmQCZQF" opacity="1" fill-opacity="0" stroke="#000000" stroke-width="1" stroke-opacity="0"></use></g></g><g><use xlink:href="#a4MvDM96m0" opacity="1" fill="#323330" fill-opacity="1"></use><g><use xlink:href="#a4MvDM96m0" opacity="1" fill-opacity="0" stroke="#000000" stroke-width="1" stroke-opacity="0"></use></g></g></g></svg>