<?xml version="1.0" encoding="UTF-8" standalone="no"?>
<!DOCTYPE svg PUBLIC "-//W3C//DTD SVG 1.1//EN" "http://www.w3.org/Graphics/SVG/1.1/DTD/svg11.dtd">
<svg version="1.1" xmlns="http://www.w3.org/2000/svg" xmlns:xlink="http://www.w3.org/1999/xlink" preserveAspectRatio="xMidYMid meet" viewBox="27.945889133284453 26.680487922153002 458.10865540535985 460.63956973891317" width="120" height="120.67"><defs><path d="M299.06 240.25C328.28 240.25 351.59 216.15 351.59 186.84C351.59 176.81 351.59 96.63 351.59 86.6C351.59 58.08 327.59 36.73 299.06 31.91C263.84 26.11 225.58 26.4 194 32.01C149.54 39.88 141.48 56.31 141.48 86.7C141.48 88.13 141.48 95.28 141.48 108.16L246.63 108.16L246.63 140.11C159.87 140.11 111.67 140.11 102.03 140.11C71.44 140.11 44.68 158.51 36.32 193.43C26.68 233.46 26.29 258.45 36.32 300.26C43.8 331.34 61.6 353.57 92.2 353.57C94.6 353.57 106.64 353.57 128.3 353.57C128.3 324.77 128.3 308.77 128.3 305.57C128.3 270.85 158.3 240.25 194.01 240.25C194 240.25 194 240.25 194.01 240.25C257.04 240.25 292.06 240.25 299.06 240.25Z" id="a1xqJs2pBR"></path><path d="M422.45 156.06C419.82 156.06 406.67 156.06 383.01 156.06C383.01 184.03 383.01 199.57 383.01 202.68C383.01 238.88 352.31 269.37 317.3 269.37C306.79 269.37 222.75 269.37 212.24 269.37C183.52 269.37 159.71 293.97 159.71 322.79C159.71 332.8 159.71 412.91 159.71 422.93C159.71 451.45 184.5 468.17 212.24 476.34C245.49 486.08 277.46 487.85 317.29 476.34C343.76 468.66 369.82 453.22 369.82 422.93C369.82 421.53 369.82 414.53 369.82 401.93L264.87 401.93L264.87 369.51C359.42 369.51 411.94 369.51 422.45 369.51C453.04 369.51 464.35 348.17 474.97 316.2C485.99 283.24 485.5 251.57 474.98 209.37C474.98 209.37 474.98 209.37 474.98 209.37C460.35 173.83 442.84 156.06 422.45 156.06Z" id="dbI9IUqrs"></path><path d="M168.44 70.43C168.53 59.76 176.94 51.17 187.42 51.17C197.8 51.17 206.39 59.86 206.39 70.43C206.39 81 197.89 89.59 187.42 89.59C176.94 89.59 168.44 81 168.44 70.43Z" id="afDzVpbsy"></path><path d="M295.93 440.91C296.03 430.24 304.43 421.65 314.91 421.65C325.29 421.65 333.88 430.34 333.88 440.91C333.88 451.49 325.39 460.08 314.91 460.08C304.43 460.08 295.93 451.49 295.93 440.91Z" id="b1xg4npzYI"></path></defs><g><g><use xlink:href="#a1xqJs2pBR" opacity="1" fill="#347ab4" fill-opacity="1"></use><g><use xlink:href="#a1xqJs2pBR" opacity="1" fill-opacity="0" stroke="#000000" stroke-width="1" stroke-opacity="0"></use></g></g><g><use xlink:href="#dbI9IUqrs" opacity="1" fill="#ffca1d" fill-opacity="1"></use><g><use xlink:href="#dbI9IUqrs" opacity="1" fill-opacity="0" stroke="#000000" stroke-width="1" stroke-opacity="0"></use></g></g><g><use xlink:href="#afDzVpbsy" opacity="1" fill="#ffffff" fill-opacity="1"></use><g><use xlink:href="#afDzVpbsy" opacity="1" fill-opacity="0" stroke="#000000" stroke-width="1" stroke-opacity="0"></use></g></g><g><use xlink:href="#b1xg4npzYI" opacity="1" fill="#ffffff" fill-opacity="1"></use><g><use xlink:href="#b1xg4npzYI" opacity="1" fill-opacity="0" stroke="#000000" stroke-width="1" stroke-opacity="0"></use></g></g></g></svg>