<?xml version="1.0" encoding="UTF-8" standalone="no"?>
<!DOCTYPE svg PUBLIC "-//W3C//DTD SVG 1.1//EN" "http://www.w3.org/Graphics/SVG/1.1/DTD/svg11.dtd">
<svg version="1.1" xmlns="http://www.w3.org/2000/svg" xmlns:xlink="http://www.w3.org/1999/xlink" preserveAspectRatio="xMidYMid meet" viewBox="108.01639344262298 93.26229508196718 434.1639344262294 434.1639344262294" width="36" height="36"><defs><path d="M324.1 94.26C205.31 94.26 109.02 190.56 109.02 309.34C109.02 428.13 205.31 524.43 324.1 524.43C442.88 524.43 539.18 428.13 539.18 309.34C539.18 190.56 442.88 94.26 324.1 94.26Z" id="b3z1Y3FS9x"></path><path d="M387.45 303.72C386.52 293.13 383.25 283.38 377.53 274.56C371.82 265.74 364.43 258.77 355.18 253.73C345.94 248.6 336.03 246.08 325.36 246.08C320.74 246.08 316.12 246.67 311.41 247.76C309.23 248.43 308.14 250.7 308.14 254.31C308.14 265.87 308.14 358.28 308.14 369.84C308.14 370.26 308.3 370.76 308.64 371.35C308.98 371.94 309.4 372.27 310.07 372.52C319.17 372.53 392.03 372.6 401.14 372.61C410.8 372.61 419.12 369.08 426.09 362.11C433.07 355.13 436.51 346.65 436.51 336.73C436.51 326.9 433.07 318.5 426.09 311.44C419.2 304.47 410.8 300.94 401.06 300.94C396.27 300.94 391.73 301.87 387.45 303.72Z" id="c20yitRa58"></path><path d="M213.95 313.55C212.44 315.06 211.68 316.91 211.68 319.09C211.68 322.17 211.68 346.77 211.68 349.84C211.68 352.7 212.69 354.8 214.71 356.23C216.73 357.65 218.91 358.16 221.18 357.74C223.36 357.32 224.88 356.56 225.72 355.39C226.56 354.21 227.06 352.36 227.06 349.76C227.06 346.68 227.06 322.08 227.06 319.01C227.06 316.82 226.3 314.97 224.79 313.46C223.28 312.03 221.51 311.28 219.33 311.28C217.23 311.28 215.47 312.03 213.95 313.55Z" id="cp7EkhhH9"></path><path d="M237.98 285.82C236.47 287.33 235.71 289.18 235.71 291.28C235.71 298.46 235.71 355.86 235.71 363.03C235.71 365.05 236.47 366.64 237.9 367.65C239.33 368.66 241.17 369.16 243.36 369.16C245.63 369.16 247.56 368.66 248.99 367.65C250.42 366.64 251.09 365.05 251.09 363.03C251.09 355.86 251.09 298.46 251.09 291.28C251.09 289.18 250.33 287.33 248.82 285.82C247.39 284.31 245.54 283.55 243.36 283.55C241.26 283.55 239.49 284.31 237.98 285.82Z" id="c5vu2GiVeR"></path><path d="M262.01 295.31C260.5 296.83 259.74 298.76 259.74 300.94C259.74 305.31 259.74 327.12 259.74 366.39C259.74 366.39 259.74 366.39 259.74 366.39C259.74 368.41 260.5 370 261.93 371.01C263.35 372.02 265.29 372.52 267.56 372.52C269.82 372.52 271.59 372.02 273.02 371.01C274.44 370 275.12 368.41 275.12 366.39C275.12 359.85 275.12 307.49 275.12 300.94C275.12 298.76 274.36 296.91 272.85 295.31C271.42 293.8 269.66 292.96 267.56 292.96C265.37 292.96 263.52 293.72 262.01 295.31Z" id="b6S2nLfyl"></path><path d="M287.13 252.55C284.86 254.48 283.77 257.17 283.77 260.61C283.77 267.69 283.77 303.06 283.77 366.73C283.77 366.73 283.77 366.73 283.77 366.73C283.77 370.59 286.38 372.52 291.5 372.52C296.63 372.52 299.23 370.59 299.23 366.73C299.23 356.12 299.23 271.23 299.23 260.61C299.23 254.73 297.47 251.37 293.94 250.53C291.67 249.94 289.4 250.62 287.13 252.55Z" id="aa6O3gBqQ"></path></defs><g><g><use xlink:href="#b3z1Y3FS9x" opacity="1" fill="#3ba40b" fill-opacity="1"></use><g><use xlink:href="#b3z1Y3FS9x" opacity="1" fill-opacity="0" stroke="#000000" stroke-width="1" stroke-opacity="0"></use></g></g><g><use xlink:href="#c20yitRa58" opacity="1" fill="#ffffff" fill-opacity="1"></use><g><use xlink:href="#c20yitRa58" opacity="1" fill-opacity="0" stroke="#000000" stroke-width="1" stroke-opacity="0"></use></g></g><g><use xlink:href="#cp7EkhhH9" opacity="1" fill="#ffffff" fill-opacity="1"></use><g><use xlink:href="#cp7EkhhH9" opacity="1" fill-opacity="0" stroke="#000000" stroke-width="1" stroke-opacity="0"></use></g></g><g><use xlink:href="#c5vu2GiVeR" opacity="1" fill="#ffffff" fill-opacity="1"></use><g><use xlink:href="#c5vu2GiVeR" opacity="1" fill-opacity="0" stroke="#000000" stroke-width="1" stroke-opacity="0"></use></g></g><g><use xlink:href="#b6S2nLfyl" opacity="1" fill="#ffffff" fill-opacity="1"></use><g><use xlink:href="#b6S2nLfyl" opacity="1" fill-opacity="0" stroke="#000000" stroke-width="1" stroke-opacity="0"></use></g></g><g><use xlink:href="#aa6O3gBqQ" opacity="1" fill="#ffffff" fill-opacity="1"></use><g><use xlink:href="#aa6O3gBqQ" opacity="1" fill-opacity="0" stroke="#000000" stroke-width="1" stroke-opacity="0"></use></g></g></g></svg>