<?xml version="1.0" encoding="UTF-8" standalone="no"?>
<!DOCTYPE svg PUBLIC "-//W3C//DTD SVG 1.1//EN" "http://www.w3.org/Graphics/SVG/1.1/DTD/svg11.dtd">
<svg version="1.1" xmlns="http://www.w3.org/2000/svg" xmlns:xlink="http://www.w3.org/1999/xlink" preserveAspectRatio="xMidYMid meet" viewBox="0 0 640 640" width="120" height="120"><defs><path d="M236.8 492.8C227.58 467.71 153.86 267.01 144.64 241.92C134.4 266.24 128 291.84 128 320C128 395.52 172.8 462.08 236.8 492.8Z" id="a2hraeZ8Qw"></path><path d="M433.92 257.28C423.68 241.92 414.72 227.84 414.72 212.48C414.72 194.56 427.52 177.92 446.72 177.92C448 177.92 448 177.92 449.28 177.92C416 147.2 369.92 128 320 128C253.44 128 193.28 162.56 160 215.04C165.12 215.04 168.96 215.04 172.8 215.04C193.28 215.04 224 212.48 224 212.48C234.24 212.48 235.52 226.56 225.28 227.84C225.28 227.84 215.04 229.12 203.52 229.12C208.21 242.94 231.68 312.06 273.92 436.48L316.16 311.04C296.96 262.66 286.29 235.78 284.16 230.4C273.92 230.4 263.68 229.12 263.68 229.12C253.44 229.12 254.72 212.48 264.96 213.76C264.96 213.76 296.96 216.32 316.16 216.32C336.64 216.32 367.36 213.76 367.36 213.76C377.6 213.76 378.88 227.84 368.64 229.12C368.64 229.12 358.4 230.4 346.88 230.4C351.49 244.14 374.53 312.83 416 436.48C427.52 398.08 433.92 376.75 435.2 372.48C442.88 345.6 449.28 326.4 449.28 309.76C449.28 285.44 440.32 270.08 433.92 257.28Z" id="ap4rYlhXg"></path><path d="M266.24 504.32C282.88 509.44 302.08 512 320 512C341.76 512 363.52 508.16 384 500.48C384 499.2 382.72 499.2 382.72 497.92C378.79 487.17 359.17 433.41 323.84 336.64C289.28 437.25 270.08 493.14 266.24 504.32Z" id="a6WaYUjPjg"></path><path d="M490.24 247.04C490.24 266.24 486.4 288 476.16 316.16C470.14 333.18 422.02 469.38 416 486.4C473.6 453.12 512 390.4 512 320C512 286.72 503.04 254.72 488.96 227.84C490.24 234.24 490.24 240.64 490.24 247.04Z" id="cm43N2Rp"></path><path d="M12.8 320C12.8 490.24 149.76 627.2 320 627.2C490.24 627.2 627.2 490.24 627.2 320C627.2 149.76 490.24 12.8 320 12.8C149.76 12.8 12.8 149.76 12.8 320ZM76.8 320C76.8 185.6 185.6 76.8 320 76.8C454.4 76.8 563.2 185.6 563.2 320C563.2 454.4 454.4 563.2 320 563.2C185.6 563.2 76.8 454.4 76.8 320Z" id="aKr4GkqcE"></path></defs><g><g><g><use xlink:href="#a2hraeZ8Qw" opacity="1" fill="#12a5d7" fill-opacity="1"></use><g><use xlink:href="#a2hraeZ8Qw" opacity="1" fill-opacity="0" stroke="#000000" stroke-width="1" stroke-opacity="0"></use></g></g><g><use xlink:href="#ap4rYlhXg" opacity="1" fill="#12a5d7" fill-opacity="1"></use><g><use xlink:href="#ap4rYlhXg" opacity="1" fill-opacity="0" stroke="#000000" stroke-width="1" stroke-opacity="0"></use></g></g><g><use xlink:href="#a6WaYUjPjg" opacity="1" fill="#12a5d7" fill-opacity="1"></use><g><use xlink:href="#a6WaYUjPjg" opacity="1" fill-opacity="0" stroke="#000000" stroke-width="1" stroke-opacity="0"></use></g></g><g><use xlink:href="#cm43N2Rp" opacity="1" fill="#12a5d7" fill-opacity="1"></use><g><use xlink:href="#cm43N2Rp" opacity="1" fill-opacity="0" stroke="#000000" stroke-width="1" stroke-opacity="0"></use></g></g><g><use xlink:href="#aKr4GkqcE" opacity="1" fill="#12a5d7" fill-opacity="1"></use><g><use xlink:href="#aKr4GkqcE" opacity="1" fill-opacity="0" stroke="#000000" stroke-width="1" stroke-opacity="0"></use></g></g></g></g></svg>